<mxfile host="app.diagrams.net" modified="2022-09-07T17:40:15.440Z" agent="5.0 (Windows NT 10.0; Win64; x64) AppleWebKit/537.36 (KHTML, like Gecko) Chrome/104.0.5112.102 Safari/537.36 Edg/104.0.1293.70" etag="6kNQt9EfvPgGoj0XqWo7" version="20.2.7" type="github">
  <diagram id="8NPSMCzCiiRAJ7wZRFvI" name="第 1 页">
    <mxGraphModel dx="1338" dy="834" grid="1" gridSize="10" guides="1" tooltips="1" connect="1" arrows="1" fold="1" page="1" pageScale="1" pageWidth="827" pageHeight="1169" math="0" shadow="0">
      <root>
        <mxCell id="0" />
        <mxCell id="1" parent="0" />
        <mxCell id="GCgSAxmtCWEwhA5vh95y-15" style="edgeStyle=orthogonalEdgeStyle;rounded=0;orthogonalLoop=1;jettySize=auto;html=1;exitX=1;exitY=0.5;exitDx=0;exitDy=0;entryX=0.5;entryY=1;entryDx=0;entryDy=0;entryPerimeter=0;" edge="1" parent="1" source="GCgSAxmtCWEwhA5vh95y-1" target="GCgSAxmtCWEwhA5vh95y-4">
          <mxGeometry relative="1" as="geometry" />
        </mxCell>
        <mxCell id="GCgSAxmtCWEwhA5vh95y-1" value="PgSQL" style="rounded=1;whiteSpace=wrap;html=1;fillColor=#dae8fc;strokeColor=#6c8ebf;" vertex="1" parent="1">
          <mxGeometry x="70" y="220" width="120" height="60" as="geometry" />
        </mxCell>
        <mxCell id="GCgSAxmtCWEwhA5vh95y-16" style="edgeStyle=orthogonalEdgeStyle;rounded=0;orthogonalLoop=1;jettySize=auto;html=1;" edge="1" parent="1" source="GCgSAxmtCWEwhA5vh95y-2">
          <mxGeometry relative="1" as="geometry">
            <mxPoint x="240" y="390" as="targetPoint" />
          </mxGeometry>
        </mxCell>
        <mxCell id="GCgSAxmtCWEwhA5vh95y-2" value="Flume" style="rounded=1;whiteSpace=wrap;html=1;fillColor=#dae8fc;strokeColor=#6c8ebf;" vertex="1" parent="1">
          <mxGeometry x="70" y="360" width="120" height="60" as="geometry" />
        </mxCell>
        <mxCell id="GCgSAxmtCWEwhA5vh95y-17" style="edgeStyle=orthogonalEdgeStyle;rounded=0;orthogonalLoop=1;jettySize=auto;html=1;entryX=0.5;entryY=1;entryDx=0;entryDy=0;entryPerimeter=0;" edge="1" parent="1" source="GCgSAxmtCWEwhA5vh95y-3" target="GCgSAxmtCWEwhA5vh95y-4">
          <mxGeometry relative="1" as="geometry" />
        </mxCell>
        <mxCell id="GCgSAxmtCWEwhA5vh95y-3" value="API" style="rounded=1;whiteSpace=wrap;html=1;fillColor=#dae8fc;strokeColor=#6c8ebf;" vertex="1" parent="1">
          <mxGeometry x="70" y="490" width="120" height="60" as="geometry" />
        </mxCell>
        <mxCell id="GCgSAxmtCWEwhA5vh95y-18" style="edgeStyle=orthogonalEdgeStyle;rounded=0;orthogonalLoop=1;jettySize=auto;html=1;" edge="1" parent="1" source="GCgSAxmtCWEwhA5vh95y-4" target="GCgSAxmtCWEwhA5vh95y-10">
          <mxGeometry relative="1" as="geometry" />
        </mxCell>
        <mxCell id="GCgSAxmtCWEwhA5vh95y-19" style="edgeStyle=orthogonalEdgeStyle;rounded=0;orthogonalLoop=1;jettySize=auto;html=1;entryX=0;entryY=0.5;entryDx=0;entryDy=0;" edge="1" parent="1" source="GCgSAxmtCWEwhA5vh95y-4" target="GCgSAxmtCWEwhA5vh95y-9">
          <mxGeometry relative="1" as="geometry" />
        </mxCell>
        <mxCell id="GCgSAxmtCWEwhA5vh95y-20" style="edgeStyle=orthogonalEdgeStyle;rounded=0;orthogonalLoop=1;jettySize=auto;html=1;entryX=0;entryY=0.5;entryDx=0;entryDy=0;" edge="1" parent="1" source="GCgSAxmtCWEwhA5vh95y-4" target="GCgSAxmtCWEwhA5vh95y-12">
          <mxGeometry relative="1" as="geometry" />
        </mxCell>
        <mxCell id="GCgSAxmtCWEwhA5vh95y-4" value="" style="shape=cylinder3;whiteSpace=wrap;html=1;boundedLbl=1;backgroundOutline=1;size=15;rotation=90;" vertex="1" parent="1">
          <mxGeometry x="360" y="240" width="130" height="300" as="geometry" />
        </mxCell>
        <mxCell id="GCgSAxmtCWEwhA5vh95y-5" value="Message Queue" style="text;html=1;resizable=0;autosize=1;align=center;verticalAlign=middle;points=[];fillColor=none;strokeColor=none;rounded=0;fontStyle=1" vertex="1" parent="1">
          <mxGeometry x="359" y="330" width="110" height="30" as="geometry" />
        </mxCell>
        <mxCell id="GCgSAxmtCWEwhA5vh95y-6" value="queue 1" style="rounded=1;whiteSpace=wrap;html=1;fillColor=#f8cecc;strokeColor=#b85450;" vertex="1" parent="1">
          <mxGeometry x="349" y="370" width="141" height="20" as="geometry" />
        </mxCell>
        <mxCell id="GCgSAxmtCWEwhA5vh95y-7" value="queue 3" style="rounded=1;whiteSpace=wrap;html=1;fillColor=#f8cecc;strokeColor=#b85450;" vertex="1" parent="1">
          <mxGeometry x="349" y="400" width="141" height="20" as="geometry" />
        </mxCell>
        <mxCell id="GCgSAxmtCWEwhA5vh95y-8" value="queue 2" style="rounded=1;whiteSpace=wrap;html=1;fillColor=#f8cecc;strokeColor=#b85450;" vertex="1" parent="1">
          <mxGeometry x="349" y="430" width="141" height="20" as="geometry" />
        </mxCell>
        <mxCell id="GCgSAxmtCWEwhA5vh95y-9" value="Spark" style="rounded=1;whiteSpace=wrap;html=1;fillColor=#dae8fc;strokeColor=#6c8ebf;" vertex="1" parent="1">
          <mxGeometry x="660" y="220" width="120" height="60" as="geometry" />
        </mxCell>
        <mxCell id="GCgSAxmtCWEwhA5vh95y-10" value="Spring Boot 1" style="rounded=1;whiteSpace=wrap;html=1;fillColor=#dae8fc;strokeColor=#6c8ebf;" vertex="1" parent="1">
          <mxGeometry x="660" y="350" width="120" height="60" as="geometry" />
        </mxCell>
        <mxCell id="GCgSAxmtCWEwhA5vh95y-12" value="Spring Boot 2" style="rounded=1;whiteSpace=wrap;html=1;fillColor=#dae8fc;strokeColor=#6c8ebf;" vertex="1" parent="1">
          <mxGeometry x="660" y="490" width="120" height="60" as="geometry" />
        </mxCell>
        <mxCell id="GCgSAxmtCWEwhA5vh95y-13" value="Producer" style="text;html=1;resizable=0;autosize=1;align=center;verticalAlign=middle;points=[];fillColor=none;strokeColor=none;rounded=0;fontStyle=1" vertex="1" parent="1">
          <mxGeometry x="90" y="140" width="80" height="30" as="geometry" />
        </mxCell>
        <mxCell id="GCgSAxmtCWEwhA5vh95y-14" value="Consumer" style="text;html=1;resizable=0;autosize=1;align=center;verticalAlign=middle;points=[];fillColor=none;strokeColor=none;rounded=0;fontStyle=1" vertex="1" parent="1">
          <mxGeometry x="670" y="140" width="80" height="30" as="geometry" />
        </mxCell>
      </root>
    </mxGraphModel>
  </diagram>
</mxfile>
